<mxfile host="app.diagrams.net" modified="2023-03-11T15:08:33.879Z" agent="5.0 (Windows NT 10.0; Win64; x64) AppleWebKit/537.36 (KHTML, like Gecko) Chrome/110.0.0.0 Safari/537.36 Edg/110.0.1587.63" etag="mZS6pF2dxduP4BJpphAO" version="21.0.6" type="github">
  <diagram id="ezzDb_tC1NrM5NpIjzHf" name="第 1 页">
    <mxGraphModel dx="1434" dy="774" grid="0" gridSize="10" guides="1" tooltips="1" connect="1" arrows="1" fold="1" page="1" pageScale="1" pageWidth="1200" pageHeight="1920" math="0" shadow="0">
      <root>
        <mxCell id="0" />
        <mxCell id="1" parent="0" />
        <mxCell id="RscJuZ10fCb89y4JSlhW-61" value="" style="rounded=0;whiteSpace=wrap;html=1;fillColor=#C0CFD9;" parent="1" vertex="1">
          <mxGeometry x="35" y="870" width="282" height="133" as="geometry" />
        </mxCell>
        <mxCell id="RscJuZ10fCb89y4JSlhW-6" value="Auth Server&lt;span style=&quot;white-space: pre;&quot;&gt; &lt;/span&gt;" style="rounded=1;whiteSpace=wrap;html=1;glass=0;fillColor=#F7C325;strokeColor=none;" parent="1" vertex="1">
          <mxGeometry x="570" y="495" width="200" height="40" as="geometry" />
        </mxCell>
        <mxCell id="RscJuZ10fCb89y4JSlhW-8" value="Member Server " style="rounded=1;whiteSpace=wrap;html=1;glass=0;fillColor=#F7C325;strokeColor=none;" parent="1" vertex="1">
          <mxGeometry x="570" y="560" width="200" height="40" as="geometry" />
        </mxCell>
        <mxCell id="RscJuZ10fCb89y4JSlhW-9" value="Order Server " style="rounded=1;whiteSpace=wrap;html=1;glass=0;fillColor=#F7C325;strokeColor=none;" parent="1" vertex="1">
          <mxGeometry x="570" y="630" width="200" height="40" as="geometry" />
        </mxCell>
        <mxCell id="RscJuZ10fCb89y4JSlhW-10" value="Product Server " style="rounded=1;whiteSpace=wrap;html=1;glass=0;fillColor=#F7C325;strokeColor=none;" parent="1" vertex="1">
          <mxGeometry x="570" y="710" width="200" height="40" as="geometry" />
        </mxCell>
        <mxCell id="RscJuZ10fCb89y4JSlhW-31" style="edgeStyle=orthogonalEdgeStyle;rounded=1;orthogonalLoop=1;jettySize=auto;html=1;exitX=1;exitY=0.5;exitDx=0;exitDy=0;entryX=0;entryY=0.5;entryDx=0;entryDy=0;strokeColor=#6558F5;strokeWidth=2;" parent="1" source="RscJuZ10fCb89y4JSlhW-11" target="RscJuZ10fCb89y4JSlhW-12" edge="1">
          <mxGeometry relative="1" as="geometry" />
        </mxCell>
        <mxCell id="RscJuZ10fCb89y4JSlhW-11" value="&lt;font color=&quot;#ffffff&quot;&gt;Application&lt;/font&gt;" style="rounded=1;whiteSpace=wrap;html=1;glass=0;fillColor=#6558F5;strokeColor=none;" parent="1" vertex="1">
          <mxGeometry x="30" y="650" width="180" height="40" as="geometry" />
        </mxCell>
        <mxCell id="RscJuZ10fCb89y4JSlhW-12" value="&lt;font color=&quot;#ffffff&quot;&gt;Public Gateway&lt;/font&gt;" style="rounded=1;whiteSpace=wrap;html=1;glass=0;fillColor=#1AAE9F;strokeColor=none;" parent="1" vertex="1">
          <mxGeometry x="250" y="650" width="180" height="40" as="geometry" />
        </mxCell>
        <mxCell id="RscJuZ10fCb89y4JSlhW-13" value="EventBus&lt;br&gt;(MQ)" style="shape=cylinder3;whiteSpace=wrap;html=1;boundedLbl=1;backgroundOutline=1;size=15;fillColor=#FAE5D6;strokeColor=#faf5f5;" parent="1" vertex="1">
          <mxGeometry x="900" y="495" width="110" height="390" as="geometry" />
        </mxCell>
        <mxCell id="RscJuZ10fCb89y4JSlhW-14" value="Search Server " style="rounded=1;whiteSpace=wrap;html=1;glass=0;fillColor=#F7C325;strokeColor=none;" parent="1" vertex="1">
          <mxGeometry x="570" y="775" width="200" height="40" as="geometry" />
        </mxCell>
        <mxCell id="RscJuZ10fCb89y4JSlhW-15" value="Ware Server " style="rounded=1;whiteSpace=wrap;html=1;glass=0;fillColor=#F7C325;strokeColor=none;" parent="1" vertex="1">
          <mxGeometry x="570" y="840" width="200" height="40" as="geometry" />
        </mxCell>
        <mxCell id="RscJuZ10fCb89y4JSlhW-19" value="" style="endArrow=classic;html=1;rounded=1;exitX=1;exitY=0.25;exitDx=0;exitDy=0;entryX=0;entryY=0.25;entryDx=0;entryDy=0;strokeWidth=2;strokeColor=#1AAE9F;" parent="1" source="RscJuZ10fCb89y4JSlhW-12" target="RscJuZ10fCb89y4JSlhW-6" edge="1">
          <mxGeometry width="50" height="50" relative="1" as="geometry">
            <mxPoint x="570" y="720" as="sourcePoint" />
            <mxPoint x="620" y="670" as="targetPoint" />
            <Array as="points" />
          </mxGeometry>
        </mxCell>
        <mxCell id="RscJuZ10fCb89y4JSlhW-20" value="" style="endArrow=classic;html=1;rounded=1;exitX=1;exitY=0.5;exitDx=0;exitDy=0;entryX=0;entryY=0.5;entryDx=0;entryDy=0;strokeWidth=2;strokeColor=#1AAE9F;" parent="1" source="RscJuZ10fCb89y4JSlhW-12" target="RscJuZ10fCb89y4JSlhW-8" edge="1">
          <mxGeometry width="50" height="50" relative="1" as="geometry">
            <mxPoint x="440" y="670" as="sourcePoint" />
            <mxPoint x="580" y="515" as="targetPoint" />
            <Array as="points" />
          </mxGeometry>
        </mxCell>
        <mxCell id="RscJuZ10fCb89y4JSlhW-21" value="" style="endArrow=classic;html=1;rounded=1;exitX=1;exitY=0.5;exitDx=0;exitDy=0;entryX=0;entryY=0.5;entryDx=0;entryDy=0;strokeColor=#1AAE9F;strokeWidth=2;" parent="1" source="RscJuZ10fCb89y4JSlhW-12" target="RscJuZ10fCb89y4JSlhW-9" edge="1">
          <mxGeometry width="50" height="50" relative="1" as="geometry">
            <mxPoint x="450" y="680" as="sourcePoint" />
            <mxPoint x="590" y="525" as="targetPoint" />
            <Array as="points" />
          </mxGeometry>
        </mxCell>
        <mxCell id="RscJuZ10fCb89y4JSlhW-22" value="" style="endArrow=classic;html=1;rounded=1;exitX=1;exitY=0.5;exitDx=0;exitDy=0;entryX=0;entryY=0.5;entryDx=0;entryDy=0;strokeColor=#1AAE9F;strokeWidth=2;" parent="1" source="RscJuZ10fCb89y4JSlhW-12" target="RscJuZ10fCb89y4JSlhW-10" edge="1">
          <mxGeometry width="50" height="50" relative="1" as="geometry">
            <mxPoint x="460" y="690" as="sourcePoint" />
            <mxPoint x="600" y="535" as="targetPoint" />
            <Array as="points" />
          </mxGeometry>
        </mxCell>
        <mxCell id="RscJuZ10fCb89y4JSlhW-23" value="" style="endArrow=classic;html=1;rounded=1;exitX=1;exitY=0.75;exitDx=0;exitDy=0;entryX=0;entryY=0.25;entryDx=0;entryDy=0;strokeColor=#1AAE9F;strokeWidth=2;" parent="1" source="RscJuZ10fCb89y4JSlhW-12" target="RscJuZ10fCb89y4JSlhW-14" edge="1">
          <mxGeometry width="50" height="50" relative="1" as="geometry">
            <mxPoint x="470" y="700" as="sourcePoint" />
            <mxPoint x="610" y="545" as="targetPoint" />
            <Array as="points" />
          </mxGeometry>
        </mxCell>
        <mxCell id="RscJuZ10fCb89y4JSlhW-24" value="" style="endArrow=classic;html=1;rounded=1;exitX=1;exitY=0.75;exitDx=0;exitDy=0;entryX=0;entryY=0.5;entryDx=0;entryDy=0;strokeColor=#1AAE9F;strokeWidth=2;" parent="1" source="RscJuZ10fCb89y4JSlhW-12" target="RscJuZ10fCb89y4JSlhW-15" edge="1">
          <mxGeometry width="50" height="50" relative="1" as="geometry">
            <mxPoint x="480" y="710" as="sourcePoint" />
            <mxPoint x="620" y="555" as="targetPoint" />
            <Array as="points" />
          </mxGeometry>
        </mxCell>
        <mxCell id="RscJuZ10fCb89y4JSlhW-25" value="" style="endArrow=diamondThin;dashed=1;html=1;rounded=1;exitX=0.5;exitY=1;exitDx=0;exitDy=0;startArrow=diamondThin;startFill=1;endFill=1;strokeWidth=2;fillColor=#ffe6cc;strokeColor=#d79b00;" parent="1" source="RscJuZ10fCb89y4JSlhW-6" edge="1">
          <mxGeometry width="50" height="50" relative="1" as="geometry">
            <mxPoint x="570" y="720" as="sourcePoint" />
            <mxPoint x="900" y="550" as="targetPoint" />
            <Array as="points">
              <mxPoint x="670" y="550" />
              <mxPoint x="860" y="550" />
            </Array>
          </mxGeometry>
        </mxCell>
        <mxCell id="RscJuZ10fCb89y4JSlhW-26" value="" style="endArrow=diamondThin;dashed=1;html=1;rounded=1;exitX=0.5;exitY=1;exitDx=0;exitDy=0;startArrow=diamondThin;startFill=1;endFill=1;strokeWidth=2;fillColor=#ffe6cc;strokeColor=#d79b00;" parent="1" edge="1">
          <mxGeometry width="50" height="50" relative="1" as="geometry">
            <mxPoint x="670" y="600" as="sourcePoint" />
            <mxPoint x="900" y="615" as="targetPoint" />
            <Array as="points">
              <mxPoint x="670" y="615" />
              <mxPoint x="860" y="615" />
            </Array>
          </mxGeometry>
        </mxCell>
        <mxCell id="RscJuZ10fCb89y4JSlhW-27" value="" style="endArrow=diamondThin;dashed=1;html=1;rounded=1;exitX=0.5;exitY=1;exitDx=0;exitDy=0;startArrow=diamondThin;startFill=1;endFill=1;strokeWidth=2;fillColor=#ffe6cc;strokeColor=#d79b00;" parent="1" edge="1">
          <mxGeometry width="50" height="50" relative="1" as="geometry">
            <mxPoint x="670" y="670" as="sourcePoint" />
            <mxPoint x="900" y="685" as="targetPoint" />
            <Array as="points">
              <mxPoint x="670" y="685" />
              <mxPoint x="860" y="685" />
            </Array>
          </mxGeometry>
        </mxCell>
        <mxCell id="RscJuZ10fCb89y4JSlhW-28" value="" style="endArrow=diamondThin;dashed=1;html=1;rounded=1;exitX=0.5;exitY=1;exitDx=0;exitDy=0;startArrow=diamondThin;startFill=1;endFill=1;strokeWidth=2;fillColor=#ffe6cc;strokeColor=#d79b00;" parent="1" edge="1">
          <mxGeometry width="50" height="50" relative="1" as="geometry">
            <mxPoint x="670" y="750" as="sourcePoint" />
            <mxPoint x="900" y="765" as="targetPoint" />
            <Array as="points">
              <mxPoint x="670" y="765" />
              <mxPoint x="860" y="765" />
            </Array>
          </mxGeometry>
        </mxCell>
        <mxCell id="RscJuZ10fCb89y4JSlhW-29" value="" style="endArrow=diamondThin;dashed=1;html=1;rounded=1;exitX=0.5;exitY=1;exitDx=0;exitDy=0;startArrow=diamondThin;startFill=1;endFill=1;strokeWidth=2;fillColor=#ffe6cc;strokeColor=#d79b00;" parent="1" edge="1">
          <mxGeometry width="50" height="50" relative="1" as="geometry">
            <mxPoint x="670" y="815" as="sourcePoint" />
            <mxPoint x="900" y="830" as="targetPoint" />
            <Array as="points">
              <mxPoint x="670" y="830" />
              <mxPoint x="860" y="830" />
            </Array>
          </mxGeometry>
        </mxCell>
        <mxCell id="RscJuZ10fCb89y4JSlhW-30" value="" style="endArrow=diamondThin;dashed=1;html=1;rounded=1;exitX=0.5;exitY=1;exitDx=0;exitDy=0;startArrow=diamondThin;startFill=1;endFill=1;strokeWidth=2;fillColor=#ffe6cc;strokeColor=#d79b00;entryX=0.5;entryY=1;entryDx=0;entryDy=0;entryPerimeter=0;" parent="1" target="RscJuZ10fCb89y4JSlhW-13" edge="1">
          <mxGeometry width="50" height="50" relative="1" as="geometry">
            <mxPoint x="670" y="885" as="sourcePoint" />
            <mxPoint x="900" y="900" as="targetPoint" />
            <Array as="points">
              <mxPoint x="670" y="900" />
              <mxPoint x="860" y="900" />
              <mxPoint x="955" y="900" />
            </Array>
          </mxGeometry>
        </mxCell>
        <mxCell id="RscJuZ10fCb89y4JSlhW-32" value="" style="endArrow=diamondThin;html=1;rounded=1;strokeWidth=2;strokeColor=#8A8787;endFill=1;" parent="1" edge="1">
          <mxGeometry width="50" height="50" relative="1" as="geometry">
            <mxPoint x="775" y="515" as="sourcePoint" />
            <mxPoint x="805" y="515" as="targetPoint" />
          </mxGeometry>
        </mxCell>
        <mxCell id="RscJuZ10fCb89y4JSlhW-33" value="" style="shape=image;verticalLabelPosition=bottom;verticalAlign=top;imageAspect=0;aspect=fixed;image=data:image/png,iVBORw0KGgoAAAANSUhEUgAAACAAAAAgCAYAAABzenr0AAAAAXNSR0IArs4c6QAAA21JREFUWEfNV81rXFUU//3uvPE/KE1skGIrBaGIdVGlIhXaxoi4kBI/Ft26Kzh5794MCo6lzfuYISDqwujWTVzaJsYYImIWXQhCUSgoCoYmYHFRm3SRyT1yw7zwJpk3X0lDHzzuvPvOx++cd8/vnCG6uJIkOSUir5M8DOCwW0UkXUVEVkjeAbACwK03Sc4EQbDWyTzzBJIkeZPkSyLyKoCjnQzlvP8awHckF4Ig+LOVzC4AURQ9o5T6DMCZPp3mxqSUqvq+fzcr0AQgjuMKyQ/32XHW3G1r7Xvj4+Oz6eY2gCiKRpRSMw/R+ZZpEfkdwCljzH/ueRvAAUS/Hdvm5ubL5XL5hyYASZJcADD3sDPgqmR9ff1EpVK53wTAPRxEFrLR7wLgNqIoekIpFQF4e5+z8aXneZdLpdKDllWQJMkZrfVS+jKKoneUUucBnAMw1CeYfwHMisisMear1IbLtDGm0uoQPquUuuL7/s9Zh9Vq9QVr7XAOEz4GwJ3o9Hbf9haAb7TW17N24ji+SPJjEfkiD0DKAVNKqamdQPrJwuTk5JF6vf4GyRERGWmU4kedAKS+lkj+pJSaHxsbW+gFQJIkl0i+lTrN6opI1wC29UjeF5GbAO6l6SZ5T0SKaXMCMJA2qXZg+wLQS/SdZB9NABMTE4c8z/sFwOOdItjj+zta6yO7mpHbCMPwbKFQWNyjg7bqJJ8PgsCdpa2r5UASx/FVku/vJxARuWaM+WCnzXYT0Ssicp6kY8OTfYK5JSLzJOe11t+mNmq12nMpxzS1YwB3jTGf7nQWx/EJAI4Jj7tSa5TbYOO3E18l6ebBVXc3ev6cMeZ21lYYhk8WCgXjZsh2RPQ3gKta66k+o96lVq1WT1trR9Jpq9sydP1g0THh2trajUqlUu8FUKOrXgLwGoDTe2XCByLyowPjWNAxoLV2ayVZtNYOZEd1N7oDOJsHuNsM9BJwT7KPJoBarfa0tfbXnkLpU9jzvKdKpZKbjpuJ6CBmQgCXtdaf5DKhy4SIfC4iL/YZYEs1d4BJvuv7/m9ZgVwmbGTDzYN7/Yu2JCLfp8TTNRWngmEYHvU8b1hEhgEcE5FBkodahSki/zQY8Q+Sc/V6fa5cLv/VLpO5GWinND09XVheXh7Y2NhwdIxisbgyNDS0Ojo6utnrZ/sf3jOsMIhA46AAAAAASUVORK5CYII=" parent="1" vertex="1">
          <mxGeometry x="816" y="489" width="27" height="27" as="geometry" />
        </mxCell>
        <mxCell id="RscJuZ10fCb89y4JSlhW-34" value="SQL" style="text;html=1;strokeColor=none;fillColor=none;align=center;verticalAlign=middle;whiteSpace=wrap;rounded=0;" parent="1" vertex="1">
          <mxGeometry x="800" y="512" width="60" height="30" as="geometry" />
        </mxCell>
        <mxCell id="RscJuZ10fCb89y4JSlhW-35" value="" style="endArrow=diamondThin;html=1;rounded=1;strokeWidth=2;strokeColor=#8A8787;endFill=1;" parent="1" edge="1">
          <mxGeometry width="50" height="50" relative="1" as="geometry">
            <mxPoint x="775" y="586" as="sourcePoint" />
            <mxPoint x="805" y="586" as="targetPoint" />
          </mxGeometry>
        </mxCell>
        <mxCell id="RscJuZ10fCb89y4JSlhW-36" value="" style="shape=image;verticalLabelPosition=bottom;verticalAlign=top;imageAspect=0;aspect=fixed;image=data:image/png,iVBORw0KGgoAAAANSUhEUgAAACAAAAAgCAYAAABzenr0AAAAAXNSR0IArs4c6QAAA21JREFUWEfNV81rXFUU//3uvPE/KE1skGIrBaGIdVGlIhXaxoi4kBI/Ft26Kzh5794MCo6lzfuYISDqwujWTVzaJsYYImIWXQhCUSgoCoYmYHFRm3SRyT1yw7zwJpk3X0lDHzzuvPvOx++cd8/vnCG6uJIkOSUir5M8DOCwW0UkXUVEVkjeAbACwK03Sc4EQbDWyTzzBJIkeZPkSyLyKoCjnQzlvP8awHckF4Ig+LOVzC4AURQ9o5T6DMCZPp3mxqSUqvq+fzcr0AQgjuMKyQ/32XHW3G1r7Xvj4+Oz6eY2gCiKRpRSMw/R+ZZpEfkdwCljzH/ueRvAAUS/Hdvm5ubL5XL5hyYASZJcADD3sDPgqmR9ff1EpVK53wTAPRxEFrLR7wLgNqIoekIpFQF4e5+z8aXneZdLpdKDllWQJMkZrfVS+jKKoneUUucBnAMw1CeYfwHMisisMear1IbLtDGm0uoQPquUuuL7/s9Zh9Vq9QVr7XAOEz4GwJ3o9Hbf9haAb7TW17N24ji+SPJjEfkiD0DKAVNKqamdQPrJwuTk5JF6vf4GyRERGWmU4kedAKS+lkj+pJSaHxsbW+gFQJIkl0i+lTrN6opI1wC29UjeF5GbAO6l6SZ5T0SKaXMCMJA2qXZg+wLQS/SdZB9NABMTE4c8z/sFwOOdItjj+zta6yO7mpHbCMPwbKFQWNyjg7bqJJ8PgsCdpa2r5UASx/FVku/vJxARuWaM+WCnzXYT0Ssicp6kY8OTfYK5JSLzJOe11t+mNmq12nMpxzS1YwB3jTGf7nQWx/EJAI4Jj7tSa5TbYOO3E18l6ebBVXc3ev6cMeZ21lYYhk8WCgXjZsh2RPQ3gKta66k+o96lVq1WT1trR9Jpq9sydP1g0THh2trajUqlUu8FUKOrXgLwGoDTe2XCByLyowPjWNAxoLV2ayVZtNYOZEd1N7oDOJsHuNsM9BJwT7KPJoBarfa0tfbXnkLpU9jzvKdKpZKbjpuJ6CBmQgCXtdaf5DKhy4SIfC4iL/YZYEs1d4BJvuv7/m9ZgVwmbGTDzYN7/Yu2JCLfp8TTNRWngmEYHvU8b1hEhgEcE5FBkodahSki/zQY8Q+Sc/V6fa5cLv/VLpO5GWinND09XVheXh7Y2NhwdIxisbgyNDS0Ojo6utnrZ/sf3jOsMIhA46AAAAAASUVORK5CYII=" parent="1" vertex="1">
          <mxGeometry x="816" y="560" width="27" height="27" as="geometry" />
        </mxCell>
        <mxCell id="RscJuZ10fCb89y4JSlhW-37" value="SQL" style="text;html=1;strokeColor=none;fillColor=none;align=center;verticalAlign=middle;whiteSpace=wrap;rounded=0;" parent="1" vertex="1">
          <mxGeometry x="800" y="583" width="60" height="30" as="geometry" />
        </mxCell>
        <mxCell id="RscJuZ10fCb89y4JSlhW-42" value="" style="endArrow=diamondThin;html=1;rounded=1;strokeWidth=2;strokeColor=#8A8787;endFill=1;" parent="1" edge="1">
          <mxGeometry width="50" height="50" relative="1" as="geometry">
            <mxPoint x="770" y="649.5" as="sourcePoint" />
            <mxPoint x="800" y="649.5" as="targetPoint" />
          </mxGeometry>
        </mxCell>
        <mxCell id="RscJuZ10fCb89y4JSlhW-43" value="" style="shape=image;verticalLabelPosition=bottom;verticalAlign=top;imageAspect=0;aspect=fixed;image=data:image/png,iVBORw0KGgoAAAANSUhEUgAAACAAAAAgCAYAAABzenr0AAAAAXNSR0IArs4c6QAAA21JREFUWEfNV81rXFUU//3uvPE/KE1skGIrBaGIdVGlIhXaxoi4kBI/Ft26Kzh5794MCo6lzfuYISDqwujWTVzaJsYYImIWXQhCUSgoCoYmYHFRm3SRyT1yw7zwJpk3X0lDHzzuvPvOx++cd8/vnCG6uJIkOSUir5M8DOCwW0UkXUVEVkjeAbACwK03Sc4EQbDWyTzzBJIkeZPkSyLyKoCjnQzlvP8awHckF4Ig+LOVzC4AURQ9o5T6DMCZPp3mxqSUqvq+fzcr0AQgjuMKyQ/32XHW3G1r7Xvj4+Oz6eY2gCiKRpRSMw/R+ZZpEfkdwCljzH/ueRvAAUS/Hdvm5ubL5XL5hyYASZJcADD3sDPgqmR9ff1EpVK53wTAPRxEFrLR7wLgNqIoekIpFQF4e5+z8aXneZdLpdKDllWQJMkZrfVS+jKKoneUUucBnAMw1CeYfwHMisisMear1IbLtDGm0uoQPquUuuL7/s9Zh9Vq9QVr7XAOEz4GwJ3o9Hbf9haAb7TW17N24ji+SPJjEfkiD0DKAVNKqamdQPrJwuTk5JF6vf4GyRERGWmU4kedAKS+lkj+pJSaHxsbW+gFQJIkl0i+lTrN6opI1wC29UjeF5GbAO6l6SZ5T0SKaXMCMJA2qXZg+wLQS/SdZB9NABMTE4c8z/sFwOOdItjj+zta6yO7mpHbCMPwbKFQWNyjg7bqJJ8PgsCdpa2r5UASx/FVku/vJxARuWaM+WCnzXYT0Ssicp6kY8OTfYK5JSLzJOe11t+mNmq12nMpxzS1YwB3jTGf7nQWx/EJAI4Jj7tSa5TbYOO3E18l6ebBVXc3ev6cMeZ21lYYhk8WCgXjZsh2RPQ3gKta66k+o96lVq1WT1trR9Jpq9sydP1g0THh2trajUqlUu8FUKOrXgLwGoDTe2XCByLyowPjWNAxoLV2ayVZtNYOZEd1N7oDOJsHuNsM9BJwT7KPJoBarfa0tfbXnkLpU9jzvKdKpZKbjpuJ6CBmQgCXtdaf5DKhy4SIfC4iL/YZYEs1d4BJvuv7/m9ZgVwmbGTDzYN7/Yu2JCLfp8TTNRWngmEYHvU8b1hEhgEcE5FBkodahSki/zQY8Q+Sc/V6fa5cLv/VLpO5GWinND09XVheXh7Y2NhwdIxisbgyNDS0Ojo6utnrZ/sf3jOsMIhA46AAAAAASUVORK5CYII=" parent="1" vertex="1">
          <mxGeometry x="811" y="623.5" width="27" height="27" as="geometry" />
        </mxCell>
        <mxCell id="RscJuZ10fCb89y4JSlhW-44" value="SQL" style="text;html=1;strokeColor=none;fillColor=none;align=center;verticalAlign=middle;whiteSpace=wrap;rounded=0;" parent="1" vertex="1">
          <mxGeometry x="795" y="646.5" width="60" height="30" as="geometry" />
        </mxCell>
        <mxCell id="RscJuZ10fCb89y4JSlhW-45" value="" style="endArrow=diamondThin;html=1;rounded=1;strokeWidth=2;strokeColor=#8A8787;endFill=1;" parent="1" edge="1">
          <mxGeometry width="50" height="50" relative="1" as="geometry">
            <mxPoint x="770" y="729.5" as="sourcePoint" />
            <mxPoint x="800" y="729.5" as="targetPoint" />
          </mxGeometry>
        </mxCell>
        <mxCell id="RscJuZ10fCb89y4JSlhW-46" value="" style="shape=image;verticalLabelPosition=bottom;verticalAlign=top;imageAspect=0;aspect=fixed;image=data:image/png,iVBORw0KGgoAAAANSUhEUgAAACAAAAAgCAYAAABzenr0AAAAAXNSR0IArs4c6QAAA21JREFUWEfNV81rXFUU//3uvPE/KE1skGIrBaGIdVGlIhXaxoi4kBI/Ft26Kzh5794MCo6lzfuYISDqwujWTVzaJsYYImIWXQhCUSgoCoYmYHFRm3SRyT1yw7zwJpk3X0lDHzzuvPvOx++cd8/vnCG6uJIkOSUir5M8DOCwW0UkXUVEVkjeAbACwK03Sc4EQbDWyTzzBJIkeZPkSyLyKoCjnQzlvP8awHckF4Ig+LOVzC4AURQ9o5T6DMCZPp3mxqSUqvq+fzcr0AQgjuMKyQ/32XHW3G1r7Xvj4+Oz6eY2gCiKRpRSMw/R+ZZpEfkdwCljzH/ueRvAAUS/Hdvm5ubL5XL5hyYASZJcADD3sDPgqmR9ff1EpVK53wTAPRxEFrLR7wLgNqIoekIpFQF4e5+z8aXneZdLpdKDllWQJMkZrfVS+jKKoneUUucBnAMw1CeYfwHMisisMear1IbLtDGm0uoQPquUuuL7/s9Zh9Vq9QVr7XAOEz4GwJ3o9Hbf9haAb7TW17N24ji+SPJjEfkiD0DKAVNKqamdQPrJwuTk5JF6vf4GyRERGWmU4kedAKS+lkj+pJSaHxsbW+gFQJIkl0i+lTrN6opI1wC29UjeF5GbAO6l6SZ5T0SKaXMCMJA2qXZg+wLQS/SdZB9NABMTE4c8z/sFwOOdItjj+zta6yO7mpHbCMPwbKFQWNyjg7bqJJ8PgsCdpa2r5UASx/FVku/vJxARuWaM+WCnzXYT0Ssicp6kY8OTfYK5JSLzJOe11t+mNmq12nMpxzS1YwB3jTGf7nQWx/EJAI4Jj7tSa5TbYOO3E18l6ebBVXc3ev6cMeZ21lYYhk8WCgXjZsh2RPQ3gKta66k+o96lVq1WT1trR9Jpq9sydP1g0THh2trajUqlUu8FUKOrXgLwGoDTe2XCByLyowPjWNAxoLV2ayVZtNYOZEd1N7oDOJsHuNsM9BJwT7KPJoBarfa0tfbXnkLpU9jzvKdKpZKbjpuJ6CBmQgCXtdaf5DKhy4SIfC4iL/YZYEs1d4BJvuv7/m9ZgVwmbGTDzYN7/Yu2JCLfp8TTNRWngmEYHvU8b1hEhgEcE5FBkodahSki/zQY8Q+Sc/V6fa5cLv/VLpO5GWinND09XVheXh7Y2NhwdIxisbgyNDS0Ojo6utnrZ/sf3jOsMIhA46AAAAAASUVORK5CYII=" parent="1" vertex="1">
          <mxGeometry x="811" y="703.5" width="27" height="27" as="geometry" />
        </mxCell>
        <mxCell id="RscJuZ10fCb89y4JSlhW-47" value="SQL" style="text;html=1;strokeColor=none;fillColor=none;align=center;verticalAlign=middle;whiteSpace=wrap;rounded=0;" parent="1" vertex="1">
          <mxGeometry x="795" y="726.5" width="60" height="30" as="geometry" />
        </mxCell>
        <mxCell id="RscJuZ10fCb89y4JSlhW-48" value="" style="endArrow=diamondThin;html=1;rounded=1;strokeWidth=2;strokeColor=#8A8787;endFill=1;" parent="1" edge="1">
          <mxGeometry width="50" height="50" relative="1" as="geometry">
            <mxPoint x="770" y="794.5" as="sourcePoint" />
            <mxPoint x="800" y="794.5" as="targetPoint" />
          </mxGeometry>
        </mxCell>
        <mxCell id="RscJuZ10fCb89y4JSlhW-49" value="" style="shape=image;verticalLabelPosition=bottom;verticalAlign=top;imageAspect=0;aspect=fixed;image=data:image/png,iVBORw0KGgoAAAANSUhEUgAAACAAAAAgCAYAAABzenr0AAAAAXNSR0IArs4c6QAAA21JREFUWEfNV81rXFUU//3uvPE/KE1skGIrBaGIdVGlIhXaxoi4kBI/Ft26Kzh5794MCo6lzfuYISDqwujWTVzaJsYYImIWXQhCUSgoCoYmYHFRm3SRyT1yw7zwJpk3X0lDHzzuvPvOx++cd8/vnCG6uJIkOSUir5M8DOCwW0UkXUVEVkjeAbACwK03Sc4EQbDWyTzzBJIkeZPkSyLyKoCjnQzlvP8awHckF4Ig+LOVzC4AURQ9o5T6DMCZPp3mxqSUqvq+fzcr0AQgjuMKyQ/32XHW3G1r7Xvj4+Oz6eY2gCiKRpRSMw/R+ZZpEfkdwCljzH/ueRvAAUS/Hdvm5ubL5XL5hyYASZJcADD3sDPgqmR9ff1EpVK53wTAPRxEFrLR7wLgNqIoekIpFQF4e5+z8aXneZdLpdKDllWQJMkZrfVS+jKKoneUUucBnAMw1CeYfwHMisisMear1IbLtDGm0uoQPquUuuL7/s9Zh9Vq9QVr7XAOEz4GwJ3o9Hbf9haAb7TW17N24ji+SPJjEfkiD0DKAVNKqamdQPrJwuTk5JF6vf4GyRERGWmU4kedAKS+lkj+pJSaHxsbW+gFQJIkl0i+lTrN6opI1wC29UjeF5GbAO6l6SZ5T0SKaXMCMJA2qXZg+wLQS/SdZB9NABMTE4c8z/sFwOOdItjj+zta6yO7mpHbCMPwbKFQWNyjg7bqJJ8PgsCdpa2r5UASx/FVku/vJxARuWaM+WCnzXYT0Ssicp6kY8OTfYK5JSLzJOe11t+mNmq12nMpxzS1YwB3jTGf7nQWx/EJAI4Jj7tSa5TbYOO3E18l6ebBVXc3ev6cMeZ21lYYhk8WCgXjZsh2RPQ3gKta66k+o96lVq1WT1trR9Jpq9sydP1g0THh2trajUqlUu8FUKOrXgLwGoDTe2XCByLyowPjWNAxoLV2ayVZtNYOZEd1N7oDOJsHuNsM9BJwT7KPJoBarfa0tfbXnkLpU9jzvKdKpZKbjpuJ6CBmQgCXtdaf5DKhy4SIfC4iL/YZYEs1d4BJvuv7/m9ZgVwmbGTDzYN7/Yu2JCLfp8TTNRWngmEYHvU8b1hEhgEcE5FBkodahSki/zQY8Q+Sc/V6fa5cLv/VLpO5GWinND09XVheXh7Y2NhwdIxisbgyNDS0Ojo6utnrZ/sf3jOsMIhA46AAAAAASUVORK5CYII=" parent="1" vertex="1">
          <mxGeometry x="811" y="768.5" width="27" height="27" as="geometry" />
        </mxCell>
        <mxCell id="RscJuZ10fCb89y4JSlhW-50" value="SQL" style="text;html=1;strokeColor=none;fillColor=none;align=center;verticalAlign=middle;whiteSpace=wrap;rounded=0;" parent="1" vertex="1">
          <mxGeometry x="795" y="791.5" width="60" height="30" as="geometry" />
        </mxCell>
        <mxCell id="RscJuZ10fCb89y4JSlhW-54" value="" style="endArrow=diamondThin;html=1;rounded=1;strokeWidth=2;strokeColor=#8A8787;endFill=1;" parent="1" edge="1">
          <mxGeometry width="50" height="50" relative="1" as="geometry">
            <mxPoint x="772" y="866" as="sourcePoint" />
            <mxPoint x="802" y="866" as="targetPoint" />
          </mxGeometry>
        </mxCell>
        <mxCell id="RscJuZ10fCb89y4JSlhW-55" value="" style="shape=image;verticalLabelPosition=bottom;verticalAlign=top;imageAspect=0;aspect=fixed;image=data:image/png,iVBORw0KGgoAAAANSUhEUgAAACAAAAAgCAYAAABzenr0AAAAAXNSR0IArs4c6QAAA21JREFUWEfNV81rXFUU//3uvPE/KE1skGIrBaGIdVGlIhXaxoi4kBI/Ft26Kzh5794MCo6lzfuYISDqwujWTVzaJsYYImIWXQhCUSgoCoYmYHFRm3SRyT1yw7zwJpk3X0lDHzzuvPvOx++cd8/vnCG6uJIkOSUir5M8DOCwW0UkXUVEVkjeAbACwK03Sc4EQbDWyTzzBJIkeZPkSyLyKoCjnQzlvP8awHckF4Ig+LOVzC4AURQ9o5T6DMCZPp3mxqSUqvq+fzcr0AQgjuMKyQ/32XHW3G1r7Xvj4+Oz6eY2gCiKRpRSMw/R+ZZpEfkdwCljzH/ueRvAAUS/Hdvm5ubL5XL5hyYASZJcADD3sDPgqmR9ff1EpVK53wTAPRxEFrLR7wLgNqIoekIpFQF4e5+z8aXneZdLpdKDllWQJMkZrfVS+jKKoneUUucBnAMw1CeYfwHMisisMear1IbLtDGm0uoQPquUuuL7/s9Zh9Vq9QVr7XAOEz4GwJ3o9Hbf9haAb7TW17N24ji+SPJjEfkiD0DKAVNKqamdQPrJwuTk5JF6vf4GyRERGWmU4kedAKS+lkj+pJSaHxsbW+gFQJIkl0i+lTrN6opI1wC29UjeF5GbAO6l6SZ5T0SKaXMCMJA2qXZg+wLQS/SdZB9NABMTE4c8z/sFwOOdItjj+zta6yO7mpHbCMPwbKFQWNyjg7bqJJ8PgsCdpa2r5UASx/FVku/vJxARuWaM+WCnzXYT0Ssicp6kY8OTfYK5JSLzJOe11t+mNmq12nMpxzS1YwB3jTGf7nQWx/EJAI4Jj7tSa5TbYOO3E18l6ebBVXc3ev6cMeZ21lYYhk8WCgXjZsh2RPQ3gKta66k+o96lVq1WT1trR9Jpq9sydP1g0THh2trajUqlUu8FUKOrXgLwGoDTe2XCByLyowPjWNAxoLV2ayVZtNYOZEd1N7oDOJsHuNsM9BJwT7KPJoBarfa0tfbXnkLpU9jzvKdKpZKbjpuJ6CBmQgCXtdaf5DKhy4SIfC4iL/YZYEs1d4BJvuv7/m9ZgVwmbGTDzYN7/Yu2JCLfp8TTNRWngmEYHvU8b1hEhgEcE5FBkodahSki/zQY8Q+Sc/V6fa5cLv/VLpO5GWinND09XVheXh7Y2NhwdIxisbgyNDS0Ojo6utnrZ/sf3jOsMIhA46AAAAAASUVORK5CYII=" parent="1" vertex="1">
          <mxGeometry x="813" y="840" width="27" height="27" as="geometry" />
        </mxCell>
        <mxCell id="RscJuZ10fCb89y4JSlhW-56" value="SQL" style="text;html=1;strokeColor=none;fillColor=none;align=center;verticalAlign=middle;whiteSpace=wrap;rounded=0;" parent="1" vertex="1">
          <mxGeometry x="797" y="863" width="60" height="30" as="geometry" />
        </mxCell>
        <mxCell id="RscJuZ10fCb89y4JSlhW-57" value="" style="rounded=1;whiteSpace=wrap;html=1;absoluteArcSize=1;arcSize=14;strokeWidth=2;fillColor=#6558F5;strokeColor=none;" parent="1" vertex="1">
          <mxGeometry x="59" y="899" width="19" height="17" as="geometry" />
        </mxCell>
        <mxCell id="RscJuZ10fCb89y4JSlhW-58" value="" style="rounded=1;whiteSpace=wrap;html=1;absoluteArcSize=1;arcSize=14;strokeWidth=2;fillColor=#1AAE9F;strokeColor=none;" parent="1" vertex="1">
          <mxGeometry x="59" y="929" width="19" height="17" as="geometry" />
        </mxCell>
        <mxCell id="RscJuZ10fCb89y4JSlhW-59" value="" style="rounded=1;whiteSpace=wrap;html=1;absoluteArcSize=1;arcSize=14;strokeWidth=2;fillColor=#F7C325;strokeColor=none;" parent="1" vertex="1">
          <mxGeometry x="59" y="964" width="19" height="17" as="geometry" />
        </mxCell>
        <mxCell id="RscJuZ10fCb89y4JSlhW-63" value="Service" style="text;html=1;strokeColor=none;fillColor=none;align=center;verticalAlign=middle;whiteSpace=wrap;rounded=0;fontSize=6;" parent="1" vertex="1">
          <mxGeometry x="83" y="968" width="46" height="13" as="geometry" />
        </mxCell>
        <mxCell id="RscJuZ10fCb89y4JSlhW-64" value="Gateway" style="text;html=1;strokeColor=none;fillColor=none;align=center;verticalAlign=middle;whiteSpace=wrap;rounded=0;fontSize=5;" parent="1" vertex="1">
          <mxGeometry x="83" y="933" width="46" height="13" as="geometry" />
        </mxCell>
        <mxCell id="RscJuZ10fCb89y4JSlhW-65" value="App" style="text;html=1;strokeColor=none;fillColor=none;align=center;verticalAlign=middle;whiteSpace=wrap;rounded=0;fontSize=6;" parent="1" vertex="1">
          <mxGeometry x="79" y="901" width="46" height="13" as="geometry" />
        </mxCell>
        <mxCell id="RscJuZ10fCb89y4JSlhW-74" value="" style="endArrow=diamondThin;html=1;rounded=1;entryX=0.777;entryY=0.328;entryDx=0;entryDy=0;entryPerimeter=0;strokeWidth=2;endFill=1;strokeColor=#8A8787;" parent="1" edge="1">
          <mxGeometry width="50" height="50" relative="1" as="geometry">
            <mxPoint x="201" y="919" as="sourcePoint" />
            <mxPoint x="272.11400000000003" y="919.0319999999999" as="targetPoint" />
          </mxGeometry>
        </mxCell>
        <mxCell id="RscJuZ10fCb89y4JSlhW-75" value="Sync" style="text;html=1;strokeColor=none;fillColor=none;align=center;verticalAlign=middle;whiteSpace=wrap;rounded=0;fontSize=5;" parent="1" vertex="1">
          <mxGeometry x="205" y="901.5" width="46" height="13" as="geometry" />
        </mxCell>
        <mxCell id="RscJuZ10fCb89y4JSlhW-76" value="" style="endArrow=diamondThin;html=1;rounded=1;entryX=0.777;entryY=0.328;entryDx=0;entryDy=0;entryPerimeter=0;strokeWidth=2;endFill=1;strokeColor=#8A8787;dashed=1;" parent="1" edge="1">
          <mxGeometry width="50" height="50" relative="1" as="geometry">
            <mxPoint x="202" y="969" as="sourcePoint" />
            <mxPoint x="273.11400000000003" y="969.0319999999999" as="targetPoint" />
          </mxGeometry>
        </mxCell>
        <mxCell id="RscJuZ10fCb89y4JSlhW-77" value="Async" style="text;html=1;strokeColor=none;fillColor=none;align=center;verticalAlign=middle;whiteSpace=wrap;rounded=0;fontSize=5;" parent="1" vertex="1">
          <mxGeometry x="206" y="951.5" width="46" height="13" as="geometry" />
        </mxCell>
        <mxCell id="RscJuZ10fCb89y4JSlhW-78" value="Legend" style="text;html=1;strokeColor=none;fillColor=none;align=center;verticalAlign=middle;whiteSpace=wrap;rounded=0;fontSize=6;" parent="1" vertex="1">
          <mxGeometry x="37" y="872" width="46" height="13" as="geometry" />
        </mxCell>
        <mxCell id="Kf-1yxkowlBUnXhgBpAI-1" value="KaFeiMall" style="text;strokeColor=none;fillColor=none;html=1;fontSize=126;fontStyle=1;verticalAlign=middle;align=center;fontFamily=Comic Sans MS;" vertex="1" parent="1">
          <mxGeometry x="59" y="1327" width="570" height="157" as="geometry" />
        </mxCell>
        <mxCell id="Kf-1yxkowlBUnXhgBpAI-3" value="" style="shape=image;verticalLabelPosition=bottom;verticalAlign=top;imageAspect=0;aspect=fixed;image=data:image/png,iVBORw0KGgoAAAANSUhEUgAAAOkAAADvCAIAAACYDGSpAAAACXBIWXMAABJ0AAASdAHeZh94AAAAEXRFWHRTb2Z0d2FyZQBTbmlwYXN0ZV0Xzt0AABrSSURBVHic7Z17UFTXHcfXIAkYVF5KWCESAUFRAa3Ls77GiBGIUXxUGhKLmo6R6TSZqjWx041tqIwtSdGmTjRjqk2JIgVHHEXK00WD6C44ggi4JbtheaPCMhoJOf3jJluEfdzHeey9ez5/OJmwnPv9/e6Hs3fvvXvuBACAjEIRIRNJBxiLwWDo6Ojo6Ohg/sPLy8vb29vLyysiImLatGmk00mWnp6eurq6vr6+3t7evr4+X19fuVzu6+vL/AfpdOaxC3eNRmNJScnZs2f/9a9/WXlZREREVFTUypUrN2zYgC2btDl79ux//vOfmpqauro6Ky9LTU3dsGHDyy+/7Obmhi2bbQBRLl68mJaWNnXqVE6ZIyIiDh482N7eTja8eGlvbz948GBERASntk+dOjUtLe3ixYuk4/8AMXfr6uq2bt3KqXdjkMvlSqWSGsyJ9vZ2pVIp8DBg69atdXV1pEsh4e7Q0NC+fftcXV2FtG+0wTk5OfirECM5OTmwDl5dXV337ds3NDREsBzc7qrVaoVCAaV9o0lNTdVqtZhrERFarTY1NRV62xUKhVqtJlXUBIDxHNmXX365ZcsWRIMHBQUdO3Zs2bJliMbv7+9vaWlpbW1tbW1taWnR6/VPfmR4ePjJOGQy2bPjcHZ2Nv23v79/cHBwUFBQUFBQcHCwp6cnouQVFRU7duxobW1FNH5ubu7PfvYzRINbAZ+7H3zwgVKpRL2V8vJyKPpqNJrGxkZGU+bf/v5+4cNawdPTk1GZ+Xfu3LmRkZHCh62oqFi+fLnwcayjVCp///vfo97KGDC5W11dHR8fj2FDMpnMYDD4+vpy/S29Xq/RaK5fv3716tVr1649fvwYRTZOuLi4xMTExMbGKhSKyMhIf39/riN0dHRgOzurUqni4uLwbIsBh7utra3BwcGot2JiypQpDx8+tPkyo9GoVqs1Go1Go6mpqWlqasKQTQihoaFRUVGRkZGRkZELFy5kc6p16tSpAwMDGLIxtLS0BAUFYdsc8s9qg4ODGN6zxpCSkmIpj1arzcnJWbdunbu7O+ZUEHF3d1+3bl1OTo6VT6gpKSmYUy1fvnxwcBCNR2ZA7u727dsxd5DhwIEDo2M0Njbu3bsXxSkO4igUir179zY2No6u98CBA0TCbN++HbVRJtC6W1JSQqSDDJ9//rlard61a9eMGTMIxsDGjBkzdu3apVarP//8c4IxSkpKkEplAq27iYmJBJtIIUJiYiJSqUwgdPfkyZOk20ghw8mTJ9F5ZQKhu9HR0aR7SCFDdHQ0Oq9MoHK3ubmZdAMpJGlubkaklolnEEUvLS1FNDJFFGAQgLpLQQIGAVBdV/P09Lx//z6KkSmiwMPDA/UdIEjm3b6+Piqug3P//v2+vj6km0DirsFgQDEsRVyg1gCJux0dHSiGpYgL1BrQeZeCCjrvUsSKKOddDw8PFMNSxMXzzz+PdHwk7gYEBKAYliIufHx8kI5P3aWggrpLESuidNfFxeWFF15AMTJFRKB2ANX9DHTqdXC8vb1Rf2RH5W5ycjKikSmiYN26dci3gejeSp1Ohzw6xY7BsFwkwu9NoFteiWLnuLq6ovPKBKpjBplM9vrrr6MbnGLP4DhgkKFcW+Tbb7/FUQDF/sjLy0PnlQm033FHfYaPYp/Mnj0bqVcMCN39zW9+Q7qHFGJs3LgRnVoMqNw9deoU6e5RCKNUKhHZxYDE3c7OztmzZ5NuHYUwcrkc6dNAkJxnyMrKouszUAwGw7FjxxBuAPpfA9n18yh2hVwu7+rqgu4YA/x5F+2fGkVUGAyG06dPoxod7p9CU1OTk5MTqqwUERIXFwfXMROQ5938/PyRkRG4Y1JETXV19aVLl1CMDN9duANSJACqwwaIc/jFixeRRKSIHHd39/7+foimMcCcd+n6eRSzPHjwoKCgAPqwMN0tKyuDOBpFShQVFUEfE9o6kPfu3cP6bC2KqHB2djYajc8++yzEMaHNu/SSBMUKw8PD0A8boLl7+fJlWENRJElFRQXcAaG5q1KpYA1FkSS3bt2CPCKUsxXonm9PkQxubm5QZDMBZ969du0alHEoEsZoNN67dw/igNRdCj7gHjbAcferr76CMg5F2tidu99++61arRY+DkXy1NfXQxwNgrv0gIHCErubd+kBA4Ul9+7dMxqNsEaj8y4FKxCnXuouBSt25O69e/d6enqgRKE4AhA/rk0U+PtkJ93XXnvt5Zdfnjt3blhYmEwma2hoaGxsvHTp0vnz5wmmsh+Sk5NXr149pj8lJSWFhYWkIsH8uCbwutzbb78NLQoXtm3bVlVVZSnV+fPnHXzx6uTk5PPnz1vqT1VV1bZt24gEg3hlWKi7CoUCc/GzZ88+c+YMm2xZWVnOzs6Y4xHH2dk5KyuLTX/OnDlDZPkig8EgTLofEOou5scArl+/Xq/Xs49XVVXFvF06CGFhYVbejsaj1+vXr1+POeTVq1e5i2YGQe52d3fjrHnZsmVGo5FryNu3bzuIvmFhYbdv3+baH6PRiHmF+i+++IJrSLMIcre6uhpbwfPmzdNqtfxyOoK+/MRl0Gq18+bNwxb1j3/8I7+cYxDk7okTJ7AVLHAp7by8PGxRiSCi/mzbtk1IVBOC3H3vvffwVLtjxw7hpe7YsQNPWvyIqz8rVqwQnhYIdHfDhg0YSvXx8WlraxNealtbm5eXF4bAmPHy8oLVHzzPWJg1a5bwtEDg9yZaWlpg1WOF1NTUmTNnCh9n5syZr776qvBx7I1XX30VVn9SU1OFj2OT//73v1DGEeQungWit2zZAmsoSV6wgFgUxFZbgZnj4QzED71eD2HztkhJSYHy/sIwPDwcGBiIITY2AgMDh4eHIbYoJSUFQ+yysjLhUfnPu3gm3ZUrV0IcbeLEibGxsRAHJE5sbOzEiUJvShkN3IZbAsq8y99dPAe7CxcuhDvgggUL4A5IFujlQG+4WaAc8tr1vOvm5gb9fomYmBi4A5IFejkKhcLNzQ3umOMh7C6GefcnP/kJ9DHj4uKgj0kQFOWgaPsYpD/vIrrRB/P9Q+gQb3+kP++Kd9/gQbz9MRgMT548ETgIT3dbW1u///57gdu2iXj3DR5E3R/hUy9Pd+/cuSNww2xwdXUV0bD4EXV/hL9v83T3+vXrAjfMhgcPHohoWPyIuj8ajUbgCDzdra2tFbhhNoh632BA1P0Rvg4YnXdFjKj7Q2bebW1tvX//vsANs6GjowP6mIODgxCXFSKL0WgcHByEPiyKto/n66+/7uvrEzICH3fxHDDIZLKbN28+evQI7pjYwuMBejmPHj26efMm3DEtIXDq5eMungMGBuj7hrqLeUArEHAXZ3k3btyw8wHJIur+CP24xuO+SZwLdkRHRwu/0dOETqfDcKMJTtzc3HQ6HcQWRUdHYwsfEhIiJCpnd4V/PORKbm6ukApH8/HHH2MOj4GPP/4YVn9yc3Mxhx8aGuKdlvMxA86DXYZ//OMfsIb697//DWso+wFiURBbzRJBhw1cZd++fTu85Gw5ffo0779OE6dPn8afHA/i7U9OTg7vwJzdJfK9g8WLFwv8Vtbw8PDixYvxJ8eDePvzi1/8gndmbu4+fvwYf3kMBw8e5F0kAODgwYOkkuNBpP0JDw/nnZmbu1VVVUQqlMlkEydOLCoq4lfkmTNn0AVzcnKaMmWKr69vUFBQeHh4bGxsXFxcZGRkSEiIv7+/t7f3pEmT0G19NCyXdh1PUVER3C9scmJkZIRfbG6JCZ7Y/+6779LT0y9cuMD1Gyl5eXmbNm0SHsDHxyc8PHzBggX+/v4+P/LCCy+wvNtVr9frdLrR/969e/fu3bvCg5nYtGnTmTNnNm7cyOm3bty4kZ6e/t1330FMwgmNRrNo0SI+v8nJdPxrtY5hzpw5VpbzHk9OTo6Qza1YseLQoUPFxcWdnZ0cJwVWDA0NqVSqw4cPp6enR0ZGQmkRp08/58+fnzNnDpTt4gk8Gm7uTp8+nWydDO+//77NqFqtlvcKRa+88srx48e7urr49VQIV69ezc7O3rhxo5+fH+/+pKamslnv9f333+e9CYhs3ryZX684uNvU1ES6zP8THh6enZ3d29s7Pmd7e7tSqZTL5VzHTE5O/vvf/w73MpUQ6uvrjx07xm/JJrlcrlQq29vbxw/b29ubnZ0dHh7OY1gUzJgxg19/JgAAWG7j+PHj9rYMqJ+fX0REhKenJ/OG0N3d3d/fr1arDQYDp3HefffdnTt3BgUFoYkplKKiok8//ZTHw4vkcvnChQvH9Keuru6bb75BEJM/Wq32pZde4vxr7DV/8803EcQmzJIlS4qLi/n93WPm1KlToaGhpBuGhJMnT/JoCAd3Z82aRbpGyAg5MU6Erq6uX/3qV6TbBp+33nqLRzfYutve3k66QMj86U9/4tEve+Avf/kL6eZBJiwsjEcf2Lr75Zdfki4QJhcuXODRLPsB5tMh7YP+/n6uTWB7bUKlUiGNjpOsrKw1a9bAGm1kZKS+vr67u3voaZ5/munTp4eHhzs5OUHZ6Pz58/V6vb+/P5TR7AGVSsX5jApLx+3nlIpAkpOTuf59j6e2tvbo0aMZGRkxMTHsdXRycoqJicnIyDh69Ghtba3wGEivdWNmz549XMtn5e7Dhw9JlwaNkpIS7pL8n7KysrS0NChJ0tLShC//nZGRASUMcWJjY7nWzsrdCxcukC4NDlu3buWuxw+o1eq1a9dCj7R27Vq1Ws07lU6nk8yRA9ebcli5+9vf/pZ0XXD46quveBkCSktL0Sni7+9fWlrKLxgA4PDhw4iCYYbTk5ABS3fj4+NJ1wWBqKgoXm6A/Px81PcxTpo0KT8/n1+8vr4+T09PpPHwkJmZyalw2+5iWKsUD0qlkocZPT09ISEhGOKFhIT09PTwSAgA+PnPf44hIWrWrFnDqWrb7hK83xwu1dXVPLTYs2cPtoQ8Pmsz/POf/8QWEh1TpkzhVLVtdz/88EPSRUHA3d2dhxNDQ0OYc/L7zjesJ0USp76+nn3Vtr/jLo2rEvwevSRwsTdsWwwICCB+CzkUqqur2b/YtrtXrlwREMZeWLJkCY/f6u3thZ4E0RajoqLgJiECp4nShrsajUYyK37yAOfqVQK3GBAQADUIGWC6y2kOlx7z5s3DeefnrFmz5s2bh21zdohOp9PpdCxfbMNdaRzsCiExMVGS27Jb2E+XjuIu7/XBcV6XEbKt4eFhiEkIwl45a+62tbVJ5pZz3g8Z2LRp0+bNm+GGMUtSUpKQdSTwPEUBA3DclcykKxO2azMzM1Ef9T733HP79+8XMoJk3L116xbLN0nqrm1mzZqVmZkJMcx49u/fL/AkV39/P6wwxGErnpXrFlL6zCtkzTaGP/zhD4iyvfnmmwKzAQAUCgWiePhhs3YMsHJNWDLvQQwvvviicD8ErhBllv379wsPBgAIDg6Gno0US5cuZVOyRXeLiopIlwCTyZMnQ1HkxIkTEFMdOXIESioAgJeXF8RgZHFycmJTskV3JXO/uQmBqyubOHfuXFxcnMAwy5cvP3fuHJQ8DM88w/MRpfbJtWvXbJZs0V1p3G8+mu7uboiuZGVleXt784gRGhp69OhRiEkAAJJ5yqyJQ4cO2azaorsTJkwgnR8yd+/ehSoMaGpqevvtt6dNm8YyQFhYmFKpvH//PtwYQEL3QJpYu3atzarNuyuls2MmeH9ZzTqPHj367LPPVq5caWXTqampvBdtZwO2p6hiw9vb22bV5tcWkeQtOIjOnLi4uKSnp6enpz9+/LjtRx48ePDiKFBsdzQSOykkk8l6e3ubmpqsrx1o3l1Jzruod7CLi0toaCiRpRql565MJquurrbeTPMfTqm74kJKF9VM2JTQjLuNjY2S3M2SLIpBkqXxcVeSk65MojuYQZKltba2dnV1WXmBGXcl+UFNJtEdzCDV0qxPo2bcld4JFwap7mCZRI93ZTLZtWvXrPzUjLsNDQ3IwpBEwu5KtTTr0+hYd6Uqrky6O1gm3dK4udvY2IgyDEmkuoNl0j1mGBwcbG5utvRT6q4UkHBpVqZeBzpmGBwcJPjEZ3R8//33UlqYfgwc3JXwvCuT6PwkyaJM0Hn3ByS5m6V6sMvA1t3Ozk70YUgiSXclWZSJwcFBS2tjPuVuR0cHljzEkORulmRRo7H0ZHM674oeaR8zyCxPqdRd0SPJokZD512ZTKK7WZJFjYbVvCt5pPedRJlEi2LDU+66urqSyoEHKxcYxYskixqNJS2fchf1E/CI09LSQjoCfCRZ1GgsaelY825nZ+fAwADpFDAZGBiQ/KcUVvOu5N2VSe4dVmLlmIW6+wMS29kSK8cs1N0fkNjRocTKMYtFLUcvktPd3Y03FQFCQkKQLa1EADzP6SaLXq83W/vY9cgcoRc1NTXopcJBTU0N6V4ix8vLy1L5Y69NCF9Z1v7Jz88nHQEOkinECuHh4ZZ+NNZdKT22wBK5ubmkI8BBMoVYgYO7/J53Li70en1BQQHpFEIpKCjQ6/WkUyAnIiLC0o/GuhsZGclvOW9xUVhYSDqCUCRQAhuszLtm1o5evXo1xmzEKC4uRvk5Ci3FxcWk+4cJK00wcx+Z9SW8JUNWVhbpCPwRdXj2rF+/3tqPx+tcV1eHKxthsrOzkc2MCMnOzibdOUycOnXKSh/Mz8kCnw8qFnx8fFpaWtAIhoqWlhYfHx/SncOEwWCw0grz9547yGFDV1eX6N58s7KyrK9KKxkSEhJ8fX2tvcKs0eXl5bgSkicvLw/NFAmfvLw80t3Cx5///Gfr3bD4OW727Nmkw2Ni8uTJpaWlsDWDT2lp6eTJk0l3Cx9qtdp6Qyy6u3//ftLh8TFz5syHDx/Clg0mDx8+nDlzJuk+4WPNmjU2e2LR3ZaWFjc3N9Il4CMiIgKqbJCxcnlJkuTn59vsibVzvxkZGaRLwEpCQgI82WCSkJBAujdYWbFiBZu2WHO3traWdBW4USqVkHyDhlKpJN0V3HzxxRdsOmPNXQDA66+/TroQ3LA50sLGmjVrSPcDN7GxsSybY8PdkpIS0rUQwNvbm/j96TU1NY5wU9R4jh8/zrJFNtwFALz22mukyyHDkSNHhOnHnyNHjpCungzLli1j3yXb7mo0Gnd3d9JFkeGNN96or68XICFn6uvr33jjDdJ1E6O8vJx9r2y7CwD46KOPSBdFDBcXl927d+t0Op4yskan0+3evdvFxYV0xcTg+kGZlbvAgY8cGHx9fTMzMwcGBrg7aZuBgYHMzEwb1+6lDqejBQa27jrykYOJuXPnfvLJJ52dnVy7bInOzs5PPvlk7ty5pCsjD6ejBQa27gLHPnIYzaRJk5KSkrKzs7VaLdd2M2i12uzs7KSkJMkvXsgSfqfVObgLALBxH7vjsWjRogMHDqhUqjt37nR3d4+MjIxv2sjISHd39507d1Qq1YEDBxYtWkQ6tX2xevVqHuJydvebb76hb3DW8fDwCAwMVCgUCoUiMDDQw8ODdCK7JiAggPft/9zcBQBUVlY+84xjrZZOQcelS5f4icvHXQDAZ599RrpkihQQePWHj7sAgPfee4904RRx88477wgRl7+7AIBNmzaRLp8iVpKTkwWKK8hd4DCrkFDgwuMyBHx3AQBbt24l3QqKmIAlLhDuLgBg7969pBtCEQcQxQVQ3AUOeW8/hStwxQWw3AVUX4pVoIsLILoLqL4UC/C+6msdmO4CAD799NPnnnuOdK8odsShQ4fgOmYCsrsAgNLSUnrPA4WhrKwMumAm4LsLAGhra0tOTibdNwpJFi5cePfuXRR2mUDiLsOvf/1r0g2kkCEtLW1oaAidWgwI3QUAHD58mHQbKbjZt28fUqlMoHUXAFBWVuYIz2yjyGSyOXPmnD17FrVRJpC7CwB4/Pjxnj17SDeWgpbt27dbX6YcOjjcZTh37tyCBQtId5gCHz8/vxMnTmATyQQ+dwEAPT09O3fuJN1qCkw2b96M+nyCJbC6y3Dq1KmXXnqJdM8pQpk2bdpf//pX/P6YIOAuAECn073zzjukm0/hz86dO4k/IomMuwwqlSolJYX0XqBwIzEx0U4ez0HSXYbc3NzFixeT3iMU28yfP5/IZzJLkHcXAPDkyZOsrCzHeeSd6Jg6deoHH3wwODhI2pSnsAt3GVpbW3ft2kV6N1GewsnJ6Ze//GVDQwNpO8xgR+4y3Lhx46233iK9yygyFxeXjIyMuro60kZYxO7cZaAGE2TKlCnvvvuufc61o7FTdxmowZjx8vLau3cv8ZNfLLFrdxmowRjw9fX93e9+9/XXX5Pe2xwQgbsMN27c2L17d0BAAOm9LDUUCsVHH33U1dVFeg9zRjTuMhiNxhMnTjjgU8dQsHHjxoKCAtK7lD8TAACke8iH2travLy8vLy8trY20llEhp+f35YtW7Zs2RIZGUk6izBI//EIgk7DnIiLi/vb3/7W399Per/BQazz7hhqa2sLCgoKCwvv3LlDOovd8eKLLyYlJSUlJb3yyiuks8BEIu6aOHfuXGFhYWFh4YMHD0hnIYy3tzejbGJioiQf2yY1dxk6OzsZg4uLi0lnwQ3zGCJGWU9PT9JxECJNd01oNBpG4lu3bpHOghzG16SkJD8/P9JZcCBxd01cvHjx8uXLly9fbmxsJJ0FJq6urgkJCatWrVq1alVgYCDpOFhxFHdNVFZWXr58ubi4+ObNm6Sz8MfLy2vVj8jlctJxyOBw7pq4fv06MxNfuXKFdBa2+Pn5Mb4mJCTQR+Q6rrsmbt++XVxczHhMOot5QkNDV65cyVhLl9k0Qd39PzqdTqVSVVdXq1Qq4p/tJk+evHTp0qVLly5ZskShUJANY59Qd83T3NxcUVFx5coVlUqF87JzZGQk4+vSpUulfYZLONRd2zQ0NJSXl1dUVJSXl/f390Mff/r06aYpdv78+dDHlyrUXW7U1dVVVlZWVVVVVlb29fXxHsfDwyM6Ojo6OjoqKmrJkiWurq4QQzoI1F3+NDQ0mDzu7Oy0+fpp06YxvsbExMTHxzs7O2MIKWGou3Bobm6urKxkVNbr9ab/L5fLY2JifvrTn8bHxy9atIhgQulB3YWPVqutqqoCAMTHxwcHB5OOI1mouxSx8gzpABQKT6i7FLFC3aWIFeouRaxQdyli5X+qU94Yqvg3yAAAAABJRU5ErkJggg==" vertex="1" parent="1">
          <mxGeometry x="131.88" y="1391" width="73.12" height="75" as="geometry" />
        </mxCell>
      </root>
    </mxGraphModel>
  </diagram>
</mxfile>
